<svg width="224" height="55" viewBox="0 0 224 55" fill="none" xmlns="http://www.w3.org/2000/svg">
<path d="M80.612 41.42C78.596 41.42 76.8553 40.9813 75.39 40.104C73.934 39.2267 72.8093 37.9993 72.016 36.422C71.232 34.8447 70.84 33.0107 70.84 30.92C70.84 28.8293 71.232 26.9953 72.016 25.418C72.8093 23.8407 73.934 22.6133 75.39 21.736C76.8553 20.8587 78.596 20.42 80.612 20.42C82.9267 20.42 84.868 20.994 86.436 22.142C88.0133 23.29 89.124 24.844 89.768 26.804L85.932 27.868C85.5587 26.6453 84.9287 25.698 84.042 25.026C83.1553 24.3447 82.012 24.004 80.612 24.004C79.3333 24.004 78.2647 24.2887 77.406 24.858C76.5567 25.4273 75.9173 26.23 75.488 27.266C75.0587 28.302 74.844 29.52 74.844 30.92C74.844 32.32 75.0587 33.538 75.488 34.574C75.9173 35.61 76.5567 36.4127 77.406 36.982C78.2647 37.5513 79.3333 37.836 80.612 37.836C82.012 37.836 83.1553 37.4953 84.042 36.814C84.9287 36.1327 85.5587 35.1853 85.932 33.972L89.768 35.036C89.124 36.996 88.0133 38.55 86.436 39.698C84.868 40.846 82.9267 41.42 80.612 41.42ZM97.0506 41.42C95.968 41.42 95.0486 41.2147 94.2926 40.804C93.546 40.384 92.9766 39.8287 92.5846 39.138C92.202 38.438 92.0106 37.668 92.0106 36.828C92.0106 36.128 92.118 35.4887 92.3326 34.91C92.5473 34.3313 92.8926 33.8227 93.3686 33.384C93.854 32.936 94.5026 32.5627 95.3146 32.264C95.8746 32.0587 96.542 31.8767 97.3166 31.718C98.0913 31.5593 98.9686 31.41 99.9486 31.27C100.929 31.1207 102.007 30.9573 103.183 30.78L101.811 31.536C101.811 30.64 101.596 29.982 101.167 29.562C100.737 29.142 100.019 28.932 99.0106 28.932C98.4506 28.932 97.8673 29.0673 97.2606 29.338C96.654 29.6087 96.2293 30.0893 95.9866 30.78L92.5426 29.688C92.9253 28.4373 93.644 27.42 94.6986 26.636C95.7533 25.852 97.1906 25.46 99.0106 25.46C100.345 25.46 101.531 25.6653 102.567 26.076C103.603 26.4867 104.387 27.196 104.919 28.204C105.217 28.764 105.395 29.324 105.451 29.884C105.507 30.444 105.535 31.0693 105.535 31.76V41H102.203V37.892L102.679 38.536C101.941 39.5533 101.143 40.2907 100.285 40.748C99.4353 41.196 98.3573 41.42 97.0506 41.42ZM97.8626 38.424C98.5626 38.424 99.1506 38.3027 99.6266 38.06C100.112 37.808 100.495 37.5233 100.775 37.206C101.064 36.8887 101.26 36.6227 101.363 36.408C101.559 35.9973 101.671 35.5213 101.699 34.98C101.736 34.4293 101.755 33.972 101.755 33.608L102.875 33.888C101.745 34.0747 100.831 34.2333 100.131 34.364C99.4306 34.4853 98.866 34.5973 98.4366 34.7C98.0073 34.8027 97.6293 34.9147 97.3026 35.036C96.9293 35.1853 96.626 35.3487 96.3926 35.526C96.1686 35.694 96.0006 35.8807 95.8886 36.086C95.786 36.2913 95.7346 36.52 95.7346 36.772C95.7346 37.1173 95.8186 37.416 95.9866 37.668C96.164 37.9107 96.4113 38.0973 96.7286 38.228C97.046 38.3587 97.424 38.424 97.8626 38.424ZM109.175 41V25.88H112.535V29.576L112.171 29.1C112.367 28.5773 112.628 28.1013 112.955 27.672C113.282 27.2427 113.683 26.888 114.159 26.608C114.523 26.384 114.92 26.2113 115.349 26.09C115.778 25.9593 116.222 25.88 116.679 25.852C117.136 25.8147 117.594 25.824 118.051 25.88V29.436C117.631 29.3053 117.141 29.2633 116.581 29.31C116.03 29.3473 115.531 29.4733 115.083 29.688C114.635 29.8933 114.257 30.1687 113.949 30.514C113.641 30.85 113.408 31.2513 113.249 31.718C113.09 32.1753 113.011 32.6933 113.011 33.272V41H109.175ZM127.468 41.42C125.919 41.42 124.552 41.0887 123.366 40.426C122.19 39.754 121.266 38.8347 120.594 37.668C119.932 36.492 119.6 35.148 119.6 33.636C119.6 31.984 119.927 30.5467 120.58 29.324C121.234 28.1013 122.134 27.154 123.282 26.482C124.43 25.8007 125.751 25.46 127.244 25.46C128.831 25.46 130.18 25.8333 131.29 26.58C132.401 27.3267 133.222 28.3767 133.754 29.73C134.286 31.0833 134.473 32.6747 134.314 34.504H130.548V33.104C130.548 31.564 130.301 30.458 129.806 29.786C129.321 29.1047 128.523 28.764 127.412 28.764C126.115 28.764 125.158 29.1607 124.542 29.954C123.936 30.738 123.632 31.9 123.632 33.44C123.632 34.8493 123.936 35.9413 124.542 36.716C125.158 37.4813 126.059 37.864 127.244 37.864C127.991 37.864 128.63 37.7007 129.162 37.374C129.694 37.0473 130.1 36.576 130.38 35.96L134.188 37.052C133.619 38.4333 132.718 39.5067 131.486 40.272C130.264 41.0373 128.924 41.42 127.468 41.42ZM122.456 34.504V31.676H132.48V34.504H122.456ZM144.504 41.42C142.954 41.42 141.587 41.0887 140.402 40.426C139.226 39.754 138.302 38.8347 137.63 37.668C136.967 36.492 136.636 35.148 136.636 33.636C136.636 31.984 136.962 30.5467 137.616 29.324C138.269 28.1013 139.17 27.154 140.318 26.482C141.466 25.8007 142.786 25.46 144.28 25.46C145.866 25.46 147.215 25.8333 148.326 26.58C149.436 27.3267 150.258 28.3767 150.79 29.73C151.322 31.0833 151.508 32.6747 151.35 34.504H147.584V33.104C147.584 31.564 147.336 30.458 146.842 29.786C146.356 29.1047 145.558 28.764 144.448 28.764C143.15 28.764 142.194 29.1607 141.578 29.954C140.971 30.738 140.668 31.9 140.668 33.44C140.668 34.8493 140.971 35.9413 141.578 36.716C142.194 37.4813 143.094 37.864 144.28 37.864C145.026 37.864 145.666 37.7007 146.198 37.374C146.73 37.0473 147.136 36.576 147.416 35.96L151.224 37.052C150.654 38.4333 149.754 39.5067 148.522 40.272C147.299 41.0373 145.96 41.42 144.504 41.42ZM139.492 34.504V31.676H149.516V34.504H139.492ZM154.511 41V25.88H157.871V29.576L157.507 29.1C157.703 28.5773 157.964 28.1013 158.291 27.672C158.617 27.2427 159.019 26.888 159.495 26.608C159.859 26.384 160.255 26.2113 160.685 26.09C161.114 25.9593 161.557 25.88 162.015 25.852C162.472 25.8147 162.929 25.824 163.387 25.88V29.436C162.967 29.3053 162.477 29.2633 161.917 29.31C161.366 29.3473 160.867 29.4733 160.419 29.688C159.971 29.8933 159.593 30.1687 159.285 30.514C158.977 30.85 158.743 31.2513 158.585 31.718C158.426 32.1753 158.347 32.6933 158.347 33.272V41H154.511ZM170.726 41V24.396H164.37V20.84H180.89V24.396H174.534V41H170.726ZM187.926 41.42C186.376 41.42 185.009 41.0887 183.824 40.426C182.648 39.754 181.724 38.8347 181.052 37.668C180.389 36.492 180.058 35.148 180.058 33.636C180.058 31.984 180.384 30.5467 181.038 29.324C181.691 28.1013 182.592 27.154 183.74 26.482C184.888 25.8007 186.208 25.46 187.702 25.46C189.288 25.46 190.637 25.8333 191.748 26.58C192.858 27.3267 193.68 28.3767 194.212 29.73C194.744 31.0833 194.93 32.6747 194.772 34.504H191.006V33.104C191.006 31.564 190.758 30.458 190.264 29.786C189.778 29.1047 188.98 28.764 187.87 28.764C186.572 28.764 185.616 29.1607 185 29.954C184.393 30.738 184.09 31.9 184.09 33.44C184.09 34.8493 184.393 35.9413 185 36.716C185.616 37.4813 186.516 37.864 187.702 37.864C188.448 37.864 189.088 37.7007 189.62 37.374C190.152 37.0473 190.558 36.576 190.838 35.96L194.646 37.052C194.076 38.4333 193.176 39.5067 191.944 40.272C190.721 41.0373 189.382 41.42 187.926 41.42ZM182.914 34.504V31.676H192.938V34.504H182.914ZM203.841 41.42C201.937 41.42 200.397 40.9907 199.221 40.132C198.054 39.264 197.345 38.0413 197.093 36.464L200.985 35.876C201.143 36.5853 201.493 37.1407 202.035 37.542C202.585 37.9433 203.281 38.144 204.121 38.144C204.811 38.144 205.343 38.0133 205.717 37.752C206.09 37.4813 206.277 37.108 206.277 36.632C206.277 36.3333 206.202 36.0953 206.053 35.918C205.903 35.7313 205.567 35.5493 205.045 35.372C204.531 35.1947 203.729 34.9613 202.637 34.672C201.405 34.3547 200.42 34 199.683 33.608C198.945 33.216 198.413 32.7493 198.087 32.208C197.76 31.6573 197.597 30.9947 197.597 30.22C197.597 29.2493 197.844 28.4093 198.339 27.7C198.833 26.9813 199.529 26.4307 200.425 26.048C201.33 25.656 202.394 25.46 203.617 25.46C204.802 25.46 205.852 25.642 206.767 26.006C207.681 26.37 208.419 26.888 208.979 27.56C209.548 28.232 209.898 29.0253 210.029 29.94L206.137 30.64C206.071 30.08 205.829 29.6367 205.409 29.31C204.989 28.9833 204.419 28.792 203.701 28.736C203.001 28.6893 202.436 28.7827 202.007 29.016C201.587 29.2493 201.377 29.5853 201.377 30.024C201.377 30.2853 201.465 30.5047 201.643 30.682C201.829 30.8593 202.207 31.0413 202.777 31.228C203.355 31.4147 204.233 31.6573 205.409 31.956C206.557 32.2547 207.476 32.6047 208.167 33.006C208.867 33.398 209.375 33.874 209.693 34.434C210.01 34.9847 210.169 35.652 210.169 36.436C210.169 37.9853 209.609 39.2033 208.489 40.09C207.369 40.9767 205.819 41.42 203.841 41.42ZM222.317 41C221.272 41.196 220.245 41.28 219.237 41.252C218.238 41.2333 217.342 41.0607 216.549 40.734C215.765 40.398 215.168 39.8613 214.757 39.124C214.384 38.4333 214.188 37.7333 214.169 37.024C214.15 36.3053 214.141 35.4933 214.141 34.588V21.68H217.949V34.364C217.949 34.952 217.954 35.484 217.963 35.96C217.982 36.4267 218.08 36.8 218.257 37.08C218.593 37.612 219.13 37.9013 219.867 37.948C220.604 37.9947 221.421 37.9573 222.317 37.836V41ZM211.565 28.82V25.88H222.317V28.82H211.565Z" fill="white"/>
<circle cx="27.5" cy="27.5" r="27.5" fill="url(#paint0_linear_2321_12759)"/>
<path d="M33.1842 42.1383H21.2676C14.3857 42.1383 13.1047 38.9357 12.7769 35.8224L11.6598 23.8909C11.4959 22.3268 11.4512 20.0179 13.0004 18.29C14.341 16.8004 16.5605 16.0854 19.778 16.0854H34.6738C37.9062 16.0854 40.1257 16.8153 41.4514 18.29C43.0006 20.0179 42.9559 22.3268 42.7921 23.9058L41.6749 35.8075C41.3472 38.9357 40.0661 42.1383 33.1842 42.1383ZM19.778 18.3049C17.2606 18.3049 15.5327 18.7965 14.6538 19.7796C13.9239 20.584 13.6856 21.8203 13.8792 23.6674L14.9964 35.599C15.2497 37.9525 15.8902 39.9039 21.2676 39.9039H33.1842C38.5467 39.9039 39.2022 37.9525 39.4554 35.5841L40.5726 23.6823C40.7662 21.8203 40.5279 20.584 39.798 19.7796C38.9191 18.7965 37.1912 18.3049 34.6738 18.3049H19.778Z" fill="white"/>
<path d="M33.1862 18.3045C32.5755 18.3045 32.069 17.7981 32.069 17.1873V15.9957C32.069 13.3442 32.069 12.3462 28.4195 12.3462H26.0362C22.3867 12.3462 22.3867 13.3442 22.3867 15.9957V17.1873C22.3867 17.7981 21.8803 18.3045 21.2695 18.3045C20.6588 18.3045 20.1523 17.7981 20.1523 17.1873V15.9957C20.1523 13.374 20.1523 10.1118 26.0362 10.1118H28.4195C34.3034 10.1118 34.3034 13.374 34.3034 15.9957V17.1873C34.3034 17.7981 33.7969 18.3045 33.1862 18.3045Z" fill="white"/>
<path d="M27.2253 33.2005C23.1289 33.2005 23.1289 30.6682 23.1289 29.1489V27.6146C23.1289 25.5143 23.6354 25.0078 25.7357 25.0078H28.7148C30.8152 25.0078 31.3216 25.5143 31.3216 27.6146V29.1042C31.3216 30.6533 31.3216 33.2005 27.2253 33.2005ZM25.3633 27.2422C25.3633 27.3614 25.3633 27.4954 25.3633 27.6146V29.1489C25.3633 30.6831 25.3633 30.9661 27.2253 30.9661C29.0872 30.9661 29.0872 30.7278 29.0872 29.134V27.6146C29.0872 27.4954 29.0872 27.3614 29.0872 27.2422C28.9681 27.2422 28.834 27.2422 28.7148 27.2422H25.7357C25.6165 27.2422 25.4824 27.2422 25.3633 27.2422Z" fill="white"/>
<path d="M30.2044 30.2513C29.6532 30.2513 29.1617 29.8342 29.1021 29.2682C29.0276 28.6574 29.4596 28.0914 30.0703 28.0169C34.0028 27.5253 37.7715 26.0358 40.9443 23.7269C41.4358 23.3545 42.136 23.4737 42.5083 23.9801C42.8658 24.4717 42.7616 25.1718 42.2551 25.5442C38.7695 28.0765 34.6582 29.7001 30.3385 30.2513C30.2938 30.2513 30.2491 30.2513 30.2044 30.2513Z" fill="white"/>
<path d="M24.2464 30.2661C24.2017 30.2661 24.157 30.2661 24.1123 30.2661C20.0309 29.8044 16.0537 28.3148 12.6128 25.9612C12.1063 25.6186 11.9722 24.9185 12.3148 24.4121C12.6574 23.9056 13.3575 23.7715 13.864 24.1142C17.007 26.2592 20.6267 27.6147 24.3507 28.0467C24.9614 28.1211 25.4083 28.6723 25.3338 29.283C25.2891 29.849 24.8124 30.2661 24.2464 30.2661Z" fill="white"/>
<defs>
<linearGradient id="paint0_linear_2321_12759" x1="27.5" y1="0" x2="27.5" y2="55" gradientUnits="userSpaceOnUse">
<stop stop-color="#5EB47C"/>
<stop offset="1" stop-color="#294E36"/>
</linearGradient>
</defs>
</svg>
