<?xml version="1.0" encoding="UTF-8"?>
<svg width="20" height="20" viewBox="0 0 20 20" fill="none" xmlns="http://www.w3.org/2000/svg">
    <path d="M10 10.8333C11.3807 10.8333 12.5 9.71404 12.5 8.33334C12.5 6.95263 11.3807 5.83334 10 5.83334C8.61929 5.83334 7.5 6.95263 7.5 8.33334C7.5 9.71404 8.61929 10.8333 10 10.8333Z" stroke="white" stroke-width="1.5" stroke-linecap="round" stroke-linejoin="round"/>
    <path d="M16.6667 8.33334C16.6667 14.1667 10 18.3333 10 18.3333C10 18.3333 3.33337 14.1667 3.33337 8.33334C3.33337 6.34422 4.12146 4.43656 5.52175 3.03627C6.92203 1.63598 8.82969 0.847885 10.8188 0.847885C12.8079 0.847885 14.7156 1.63598 16.1159 3.03627C17.5162 4.43656 18.3042 6.34422 18.3042 8.33334H16.6667Z" stroke="white" stroke-width="1.5" stroke-linecap="round" stroke-linejoin="round"/>
</svg> 