<?xml version="1.0" encoding="UTF-8"?>
<svg width="20" height="20" viewBox="0 0 20 20" fill="none" xmlns="http://www.w3.org/2000/svg">
    <path d="M18.3334 14.1V16.6C18.3343 16.8321 18.2867 17.0618 18.1937 17.2744C18.1008 17.487 17.9644 17.678 17.7934 17.8349C17.6224 17.9918 17.4205 18.1112 17.2006 18.1856C16.9808 18.26 16.7478 18.2876 16.5167 18.2667C13.9523 17.988 11.4892 17.1118 9.32504 15.7083C7.31164 14.4289 5.60494 12.7222 4.32504 10.7083C2.91672 8.53432 2.04019 6.05914 1.76671 3.48333C1.74586 3.25288 1.77321 3.02063 1.84707 2.80138C1.92092 2.58213 2.03963 2.38079 2.19578 2.21011C2.35193 2.03943 2.54216 1.90323 2.75401 1.81031C2.96585 1.71739 3.19483 1.66955 3.42671 1.67C3.42671 1.67 6.00004 1.66666 6.42504 1.67C6.64806 1.67094 6.86544 1.74163 7.04537 1.87273C7.2253 2.00382 7.35772 2.18833 7.42504 2.4L8.42504 5.4C8.49162 5.61523 8.49162 5.84644 8.42504 6.06167C8.35772 6.27334 8.2253 6.45785 8.04537 6.58894L6.65837 7.62833C7.84672 9.69819 9.63486 11.4863 11.7047 12.6747L12.7434 11.2877C12.8745 11.1077 13.059 10.9753 13.2707 10.908C13.4859 10.8414 13.7171 10.8414 13.9324 10.908L16.9317 11.908C17.1435 11.9755 17.3281 12.1079 17.4592 12.2879C17.5903 12.4678 17.661 12.6852 17.6617 12.9083L18.3334 14.1Z" stroke="white" stroke-width="1.5" stroke-linecap="round" stroke-linejoin="round"/>
</svg> 