<?xml version="1.0" encoding="UTF-8"?>
<svg width="1440" height="320" viewBox="0 0 1440 320" fill="none" xmlns="http://www.w3.org/2000/svg">
    <path d="M0 96C48 106.667 144 138.4 240 160C336 181.6 432 192 528 176C624 160 720 117.333 816 96C912 74.6667 1008 74.6667 1104 90.6667C1200 106.667 1296 138.667 1344 154.667L1440 170.667V320H1344C1296 320 1200 320 1104 320C1008 320 912 320 816 320C720 320 624 320 528 320C432 320 336 320 240 320C144 320 48 320 24 320H0V96Z" fill="white" fill-opacity="0.1"/>
    <path d="M0 192C48 202.667 144 234.4 240 256C336 277.6 432 288 528 272C624 256 720 213.333 816 192C912 170.667 1008 170.667 1104 186.667C1200 202.667 1296 234.667 1344 250.667L1440 266.667V320H1344C1296 320 1200 320 1104 320C1008 320 912 320 816 320C720 320 624 320 528 320C432 320 336 320 240 320C144 320 48 320 24 320H0V192Z" fill="white" fill-opacity="0.05"/>
</svg> 