<?xml version="1.0" encoding="UTF-8"?>
<svg width="1000" height="1000" viewBox="0 0 1000 1000" fill="none" xmlns="http://www.w3.org/2000/svg">
    <g opacity="0.3">
        <path d="M0 0C100 0 100 40 200 40C300 40 300 0 400 0C500 0 500 40 600 40C700 40 700 0 800 0C900 0 900 40 1000 40V140C900 140 900 100 800 100C700 100 700 140 600 140C500 140 500 100 400 100C300 100 300 140 200 140C100 140 100 100 0 100V0Z" fill="white"/>
        <path d="M0 200C100 200 100 240 200 240C300 240 300 200 400 200C500 200 500 240 600 240C700 240 700 200 800 200C900 200 900 240 1000 240V340C900 340 900 300 800 300C700 300 700 340 600 340C500 340 500 300 400 300C300 300 300 340 200 340C100 340 100 300 0 300V200Z" fill="white"/>
        <path d="M0 400C100 400 100 440 200 440C300 440 300 400 400 400C500 400 500 440 600 440C700 440 700 400 800 400C900 400 900 440 1000 440V540C900 540 900 500 800 500C700 500 700 540 600 540C500 540 500 500 400 500C300 500 300 540 200 540C100 540 100 500 0 500V400Z" fill="white"/>
        <path d="M0 600C100 600 100 640 200 640C300 640 300 600 400 600C500 600 500 640 600 640C700 640 700 600 800 600C900 600 900 640 1000 640V740C900 740 900 700 800 700C700 700 700 740 600 740C500 740 500 700 400 700C300 700 300 740 200 740C100 740 100 700 0 700V600Z" fill="white"/>
        <path d="M0 800C100 800 100 840 200 840C300 840 300 800 400 800C500 800 500 840 600 840C700 840 700 800 800 800C900 800 900 840 1000 840V940C900 940 900 900 800 900C700 900 700 940 600 940C500 940 500 900 400 900C300 900 300 940 200 940C100 940 100 900 0 900V800Z" fill="white"/>
    </g>
</svg> 